<svg width="current" height="current" viewBox="0 0 20 20" fill="none" xmlns="http://www.w3.org/2000/svg">
<path d="M12.65 14.125L10 11.475L7.35 14.125C7.1544 14.3206 6.88912 14.4305 6.6125 14.4305C6.33588 14.4305 6.0706 14.3206 5.875 14.125C5.6794 13.9294 5.56952 13.6641 5.56952 13.3875C5.56952 13.2505 5.59649 13.1149 5.64891 12.9884C5.70132 12.8618 5.77815 12.7469 5.875 12.65L8.525 10L5.875 7.35C5.6794 7.1544 5.56952 6.88912 5.56952 6.6125C5.56952 6.47553 5.59649 6.33991 5.64891 6.21337C5.70132 6.08683 5.77815 5.97185 5.875 5.875C5.97185 5.77815 6.08683 5.70132 6.21337 5.64891C6.33991 5.59649 6.47553 5.56952 6.6125 5.56952C6.88912 5.56952 7.1544 5.6794 7.35 5.875L10 8.525L12.65 5.875C12.7469 5.77815 12.8618 5.70132 12.9884 5.64891C13.1149 5.59649 13.2505 5.56952 13.3875 5.56952C13.5245 5.56952 13.6601 5.59649 13.7866 5.64891C13.9132 5.70132 14.0282 5.77815 14.125 5.875C14.2219 5.97185 14.2987 6.08683 14.3511 6.21337C14.4035 6.33991 14.4305 6.47553 14.4305 6.6125C14.4305 6.74947 14.4035 6.88509 14.3511 7.01163C14.2987 7.13817 14.2219 7.25315 14.125 7.35L11.475 10L14.125 12.65C14.3206 12.8456 14.4305 13.1109 14.4305 13.3875C14.4305 13.6641 14.3206 13.9294 14.125 14.125C13.9294 14.3206 13.6641 14.4305 13.3875 14.4305C13.1109 14.4305 12.8456 14.3206 12.65 14.125ZM20 10C20 7.34784 18.9464 4.8043 17.0711 2.92893C15.1957 1.05357 12.6522 0 10 0C7.34784 0 4.8043 1.05357 2.92893 2.92893C1.05357 4.8043 0 7.34784 0 10C0 12.6522 1.05357 15.1957 2.92893 17.0711C4.8043 18.9464 7.34784 20 10 20C12.6522 20 15.1957 18.9464 17.0711 17.0711C18.9464 15.1957 20 12.6522 20 10Z" fill="black"/>
</svg>
