<svg width="current" height="current" viewBox="0 0 16 16" fill="none" xmlns="http://www.w3.org/2000/svg">
<path d="M15.7334 12.3333L9.75337 1.68664C9.57991 1.37565 9.32656 1.11661 9.0195 0.936288C8.71244 0.755962 8.3628 0.660889 8.00671 0.660889C7.65061 0.660889 7.30097 0.755962 6.99391 0.936288C6.68685 1.11661 6.4335 1.37565 6.26004 1.68664L0.266706 12.3333C0.0953378 12.6381 0.00629193 12.9822 0.00833517 13.3319C0.0103784 13.6815 0.10344 14.0246 0.278359 14.3273C0.453278 14.6301 0.704023 14.882 1.00591 15.0584C1.3078 15.2348 1.65042 15.3296 2.00004 15.3333H14C15.5267 15.3333 16.4934 13.6733 15.7334 12.3333ZM10.7067 11.6266C10.894 11.8141 10.9992 12.0683 10.9992 12.3333C10.9992 12.5983 10.894 12.8525 10.7067 13.04C10.5192 13.2272 10.265 13.3324 10 13.3324C9.73504 13.3324 9.48087 13.2272 9.29337 13.04L7.99337 11.7466L6.70004 13.04C6.51254 13.2272 6.25837 13.3324 5.99337 13.3324C5.72837 13.3324 5.47421 13.2272 5.28671 13.04C5.09944 12.8525 4.99425 12.5983 4.99425 12.3333C4.99425 12.0683 5.09944 11.8141 5.28671 11.6266L6.58004 10.3333L5.28671 9.03998C5.09944 8.85248 4.99425 8.59831 4.99425 8.33331C4.99425 8.06831 5.09944 7.81414 5.28671 7.62664C5.47421 7.43938 5.72837 7.33419 5.99337 7.33419C6.25837 7.33419 6.51254 7.43938 6.70004 7.62664L8.00004 8.91998L9.30004 7.62664C9.48754 7.43938 9.74171 7.33419 10.0067 7.33419C10.2717 7.33419 10.5259 7.43938 10.7134 7.62664C10.9006 7.81414 11.0058 8.06831 11.0058 8.33331C11.0058 8.59831 10.9006 8.85248 10.7134 9.03998L9.42004 10.3333L10.7134 11.6266H10.7067Z" fill="#CC0000"/>
</svg>
