<svg width="current" height="current" viewBox="0 0 12 8" xmlns="http://www.w3.org/2000/svg">
<path d="M10.08 0.325006L6.00003 4.35501L1.92003 0.325006C1.70782 0.116743 1.42237 6.74725e-05 1.12503 6.74725e-05C0.827702 6.74725e-05 0.542243 0.116743 0.330034 0.325006C0.224958 0.427482 0.141452 0.54995 0.084436 0.685197C0.02742 0.820443 -0.00195312 0.965733 -0.00195312 1.11251C-0.00195312 1.25928 0.02742 1.40457 0.084436 1.53981C0.141452 1.67506 0.224958 1.79753 0.330034 1.90001L6.00003 7.50001L11.67 1.90001C11.7751 1.79753 11.8586 1.67506 11.9156 1.53981C11.9726 1.40457 12.002 1.25928 12.002 1.11251C12.002 0.965733 11.9726 0.820443 11.9156 0.685197C11.8586 0.54995 11.7751 0.427482 11.67 0.325006C11.4585 0.115544 11.1728 -0.00195312 10.875 -0.00195312C10.5773 -0.00195312 10.2916 0.115544 10.08 0.325006Z" fill="black"/>
</svg>
