<svg width="current" height="current" viewBox="0 0 20 20" fill="none" xmlns="http://www.w3.org/2000/svg">
<g clip-path="url(#clip0_4_24)">
<path d="M7.5 16.2501C7.11323 16.2501 6.74229 16.0964 6.4688 15.8229C6.19531 15.5494 6.04167 15.1785 6.04167 14.7917C6.04167 14.4049 6.19531 14.034 6.4688 13.7605C6.74229 13.487 7.11323 13.3334 7.5 13.3334C7.88677 13.3334 8.25771 13.487 8.5312 13.7605C8.80469 14.034 8.95833 14.4049 8.95833 14.7917C8.95833 15.1785 8.80469 15.5494 8.5312 15.8229C8.25771 16.0964 7.88677 16.2501 7.5 16.2501ZM18.5417 13.3334H11.6083C11.3038 12.4879 10.7459 11.757 10.0106 11.2403C9.27539 10.7236 8.39864 10.4464 7.5 10.4464C6.60136 10.4464 5.72461 10.7236 4.98936 11.2403C4.25411 11.757 3.69617 12.4879 3.39167 13.3334H1.45833C1.07156 13.3334 0.700626 13.487 0.427136 13.7605C0.153645 14.034 0 14.4049 0 14.7917C0 15.1785 0.153645 15.5494 0.427136 15.8229C0.700626 16.0964 1.07156 16.2501 1.45833 16.2501H3.39167C3.69617 17.0955 4.25411 17.8265 4.98936 18.3431C5.72461 18.8598 6.60136 19.1371 7.5 19.1371C8.39864 19.1371 9.27539 18.8598 10.0106 18.3431C10.7459 17.8265 11.3038 17.0955 11.6083 16.2501H18.5417C18.9284 16.2501 19.2994 16.0964 19.5729 15.8229C19.8464 15.5494 20 15.1785 20 14.7917C20 14.4049 19.8464 14.034 19.5729 13.7605C19.2994 13.487 18.9284 13.3334 18.5417 13.3334ZM12.5 3.75005C12.8868 3.75005 13.2577 3.9037 13.5312 4.17719C13.8047 4.45068 13.9583 4.82161 13.9583 5.20838C13.9583 5.59516 13.8047 5.96609 13.5312 6.23958C13.2577 6.51307 12.8868 6.66672 12.5 6.66672C12.1132 6.66672 11.7423 6.51307 11.4688 6.23958C11.1953 5.96609 11.0417 5.59516 11.0417 5.20838C11.0417 4.82161 11.1953 4.45068 11.4688 4.17719C11.7423 3.9037 12.1132 3.75005 12.5 3.75005ZM1.45833 6.66672H8.39167C8.69617 7.51219 9.25411 8.24313 9.98936 8.7598C10.7246 9.27648 11.6014 9.55373 12.5 9.55373C13.3986 9.55373 14.2754 9.27648 15.0106 8.7598C15.7459 8.24313 16.3038 7.51219 16.6083 6.66672H18.5417C18.9284 6.66672 19.2994 6.51307 19.5729 6.23958C19.8464 5.96609 20 5.59516 20 5.20838C20 4.82161 19.8464 4.45068 19.5729 4.17719C19.2994 3.9037 18.9284 3.75005 18.5417 3.75005H16.6083C16.3038 2.90458 15.7459 2.17364 15.0106 1.65696C14.2754 1.14029 13.3986 0.863037 12.5 0.863037C11.6014 0.863037 10.7246 1.14029 9.98936 1.65696C9.25411 2.17364 8.69617 2.90458 8.39167 3.75005H1.45833C1.07156 3.75005 0.700626 3.9037 0.427136 4.17719C0.153645 4.45068 0 4.82161 0 5.20838C0 5.59516 0.153645 5.96609 0.427136 6.23958C0.700626 6.51307 1.07156 6.66672 1.45833 6.66672Z" fill="black"/>
</g>
<defs>
<clipPath id="clip0_4_24">
<rect width="20" height="20" fill="white"/>
</clipPath>
</defs>
</svg>
