<svg width="current" height="current" viewBox="0 0 16 16" fill="none" xmlns="http://www.w3.org/2000/svg">
<path d="M5.03333 15.4134C4.93333 14.5067 5.00666 13.6334 5.2 12.7934L6 9.34669C5.85555 8.90069 5.77914 8.43547 5.77333 7.96669C5.77333 6.84669 6.30666 6.04669 7.16 6.04669C7.74667 6.04669 8.18 6.46003 8.18 7.24669C8.18 7.50003 8.13111 7.78447 8.03333 8.10003L7.68 9.25336C7.61333 9.47558 7.58 9.6778 7.58 9.86003C7.58 10.66 8.19333 11.1134 8.97333 11.1134C10.36 11.1134 11.3533 9.67336 11.3533 7.80669C11.3533 5.72669 9.99333 4.40003 7.98 4.40003C5.74 4.40003 4.32 5.86003 4.32 7.88669C4.32 8.70669 4.57333 9.46669 5.06 9.98669C4.9 10.2534 4.72666 10.3067 4.47333 10.3067C3.67333 10.3067 2.91333 9.17336 2.91333 7.64003C2.91333 4.98003 5.04667 2.86669 8.03333 2.86669C11.1667 2.86669 13.14 5.05336 13.14 7.75336C13.14 10.4667 11.22 12.5067 9.15333 12.5067C8.75948 12.5137 8.36942 12.4288 8.01414 12.2587C7.65885 12.0885 7.34813 11.8379 7.10666 11.5267L6.7 13.1934C6.48 14.0467 6.14667 14.86 5.62 15.64C6.81824 16.0134 8.08751 16.0996 9.32524 15.8917C10.563 15.6838 11.7344 15.1876 12.7449 14.4432C13.7554 13.6988 14.5765 12.7271 15.142 11.6067C15.7075 10.4862 16.0014 9.24842 16 7.99336C16.0017 6.5399 15.6075 5.11343 14.8596 3.86717C14.1117 2.62091 13.0384 1.60195 11.7549 0.919747C10.4715 0.23754 9.02653 -0.0821358 7.57512 -0.00494272C6.12372 0.0722503 4.72076 0.543395 3.51696 1.35788C2.31316 2.17237 1.35399 3.29943 0.742487 4.61799C0.130985 5.93655 -0.109744 7.39679 0.0461576 8.84187C0.202059 10.2869 0.748699 11.6622 1.62736 12.82C2.50602 13.9778 3.68351 14.8744 5.03333 15.4134Z" fill="black"/>
</svg>
