<svg width="current" height="current" viewBox="0 0 20 20" fill="none" xmlns="http://www.w3.org/2000/svg">
<path d="M18.3333 8.33333H11.6667V1.66667C11.6667 1.22464 11.4911 0.800716 11.1785 0.488155C10.8659 0.175595 10.442 0 10 0C9.55797 0 9.13405 0.175595 8.82149 0.488155C8.50893 0.800716 8.33333 1.22464 8.33333 1.66667V8.33333H1.66667C1.22464 8.33333 0.800716 8.50893 0.488155 8.82149C0.175595 9.13405 0 9.55797 0 10C0 10.442 0.175595 10.8659 0.488155 11.1785C0.800716 11.4911 1.22464 11.6667 1.66667 11.6667H8.33333V18.3333C8.33333 18.7754 8.50893 19.1993 8.82149 19.5118C9.13405 19.8244 9.55797 20 10 20C10.442 20 10.8659 19.8244 11.1785 19.5118C11.4911 19.1993 11.6667 18.7754 11.6667 18.3333V11.6667H18.3333C18.7754 11.6667 19.1993 11.4911 19.5118 11.1785C19.8244 10.8659 20 10.442 20 10C20 9.55797 19.8244 9.13405 19.5118 8.82149C19.1993 8.50893 18.7754 8.33333 18.3333 8.33333Z" fill="black"/>
</svg>
